# xmcd CD database file
#
# Track frame offsets:
#	150
#	26815
#	46942
#	59745
#	79272
#	100382
#	118462
#	141642
#	158427
#	172265
#	194945
#	207487
#	227830
#	249432
#
# Disc length: 3569 seconds
#
# Revision: 1
# Processed by: cddbd v1.5.2PL0 Copyright (c) Steve Scherf et al.
# Submitted via: CDex 1.70beta3
#
DISCID=df0def0e
DTITLE=Various Artist - トロイの木馬～TROJAN HORSE～
DYEAR=1900
DGENRE=JPop
TTITLE0=ORGANIZATION/SPACE BALL
TTITLE1=B-2 DEP'T/SWIMMING POOL
TTITLE2=Parapet's/hagane no dummy
TTITLE3=clickslip/DUST ON THE CLEANER
TTITLE4=Instant Cytron/Summer Wine
TTITLE5=Nobumitsu Honda/Indian
TTITLE6=GNP/MECHAMACHO
TTITLE7=Makoto Yamaguchi/MACH
TTITLE8=Captain Age/Paper-Driver
TTITLE9=CONTROLLED VOLTAGE/closed eyes view
TTITLE10=Teruwo Nakano/IMAGINE
TTITLE11=Kimitaka Matsumae/Circles,Children&Bridges
TTITLE12=Tokyo-Towers/ai no johkasui
TTITLE13=B-2 DEP'T/TRANCE PACIFIC 00
EXTD=
EXTT0=
EXTT1=
EXTT2=
EXTT3=
EXTT4=
EXTT5=
EXTT6=
EXTT7=
EXTT8=
EXTT9=
EXTT10=
EXTT11=
EXTT12=
EXTT13=
PLAYORDER=
